<?xml version="1.0" encoding="UTF-8" standalone="no"?>
<!DOCTYPE svg PUBLIC "-//W3C//DTD SVG 1.1//EN"
 "http://www.w3.org/Graphics/SVG/1.1/DTD/svg11.dtd">
<!-- Generated by graphviz version 11.0.0 (20240428.1522)
 -->
<!-- Title: DevelopicoKSeF Pages: 1 -->
<svg width="822pt" height="429pt"
 viewBox="0.00 0.00 821.51 428.66" xmlns="http://www.w3.org/2000/svg" xmlns:xlink="http://www.w3.org/1999/xlink">
<g id="graph0" class="graph" transform="scale(1 1) rotate(0) translate(4 424.66)">
<title>DevelopicoKSeF</title>
<polygon fill="white" stroke="none" points="-4,4 -4,-424.66 817.51,-424.66 817.51,4 -4,4"/>
<polygon fill="#ffffff" stroke="none" points="0,0 0,-459.8 813.51,-459.8 813.51,0 0,0"/>
<text text-anchor="middle" x="406.76" y="-8.2" font-family="Helvetica,sans-Serif" font-size="14.00"> </text>
<g id="clust1" class="cluster">
<title>cluster_dvlp_ksefaifeedback</title>
<polygon fill="white" stroke="#7070e0" points="285.09,-335.66 285.09,-412.66 558.34,-412.66 558.34,-335.66 285.09,-335.66"/>
<text text-anchor="middle" x="421.72" y="-396.06" font-family="Helvetica,sans-Serif" font-size="14.00">KSeF AI Feedback (dvlp_ksefaifeedback)</text>
</g>
<g id="clust2" class="cluster">
<title>cluster_dvlp_ksefinvoice</title>
<polygon fill="white" stroke="#7070e0" points="351.52,-196.66 351.52,-327.66 760.52,-327.66 760.52,-196.66 351.52,-196.66"/>
<text text-anchor="middle" x="556.02" y="-311.06" font-family="Helvetica,sans-Serif" font-size="14.00">KSeF Invoice (dvlp_ksefinvoice)</text>
</g>
<g id="clust3" class="cluster">
<title>cluster_dvlp_ksefsetting</title>
<polygon fill="white" stroke="#000090" points="601.84,-57.66 601.84,-134.66 813.51,-134.66 813.51,-57.66 601.84,-57.66"/>
<text text-anchor="middle" x="707.68" y="-118.06" font-family="Helvetica,sans-Serif" font-size="14.00">KSeF Setting (dvlp_ksefsetting)</text>
</g>
<g id="clust4" class="cluster">
<title>cluster_dvlp_ksefsession</title>
<polygon fill="white" stroke="#7070e0" points="309.4,-57.66 309.4,-188.66 533.03,-188.66 533.03,-57.66 309.4,-57.66"/>
<text text-anchor="middle" x="421.22" y="-172.06" font-family="Helvetica,sans-Serif" font-size="14.00">KSeF Session (dvlp_ksefsession)</text>
</g>
<g id="clust5" class="cluster">
<title>cluster_dvlp_KSeFSyncLog</title>
<polygon fill="white" stroke="#7070e0" points="0,-44.66 0,-175.66 248.6,-175.66 248.6,-44.66 0,-44.66"/>
<text text-anchor="middle" x="124.3" y="-159.06" font-family="Helvetica,sans-Serif" font-size="14.00">KSeF Sync Log (dvlp_KSeFSyncLog)</text>
</g>
<!-- dvlp_ksefaifeedback&#45;Invoice ID -->
<g id="node1" class="node">
<title>dvlp_ksefaifeedback&#45;Invoice ID</title>
<polygon fill="#d35400" stroke="#000090" points="460.34,-379.66 382.09,-379.66 382.09,-343.66 460.34,-343.66 460.34,-379.66"/>
<text text-anchor="middle" x="421.22" y="-357.46" font-family="Helvetica,sans-Serif" font-size="14.00" fill="#ffffff">Invoice ID</text>
</g>
<!-- dvlp_ksefinvoice&#45;Name -->
<g id="node2" class="node">
<title>dvlp_ksefinvoice&#45;Name</title>
<polygon fill="#008000" stroke="#000090" points="752.52,-294.66 661.83,-294.66 661.83,-258.66 752.52,-258.66 752.52,-294.66"/>
<text text-anchor="middle" x="707.18" y="-272.46" font-family="Helvetica,sans-Serif" font-size="14.00" fill="#ffffff">Name (Key)</text>
</g>
<!-- dvlp_ksefaifeedback&#45;Invoice ID&#45;&#45;dvlp_ksefinvoice&#45;Name -->
<g id="edge2" class="edge">
<title>dvlp_ksefaifeedback&#45;Invoice ID&#45;&#45;dvlp_ksefinvoice&#45;Name</title>
<path fill="none" stroke="#d35400" stroke-width="3" d="M460.72,-354.66C488.18,-349.31 525.84,-341.24 558.34,-331.66 593.67,-321.25 632.69,-306.6 661.76,-295.03"/>
<text text-anchor="middle" x="576.43" y="-331.86" font-family="Times New Roman,serif" font-size="14.00">*|1</text>
</g>
<!-- dvlp_ksefinvoice&#45;Parent Invoice ID -->
<g id="node3" class="node">
<title>dvlp_ksefinvoice&#45;Parent Invoice ID</title>
<polygon fill="#008000" stroke="#000090" points="482.91,-294.66 359.52,-294.66 359.52,-258.66 482.91,-258.66 482.91,-294.66"/>
<text text-anchor="middle" x="421.22" y="-272.46" font-family="Helvetica,sans-Serif" font-size="14.00" fill="#ffffff">Parent Invoice ID</text>
</g>
<!-- dvlp_ksefinvoice&#45;Parent Invoice ID&#45;&#45;dvlp_ksefinvoice&#45;Name -->
<g id="edge1" class="edge">
<title>dvlp_ksefinvoice&#45;Parent Invoice ID&#45;&#45;dvlp_ksefinvoice&#45;Name</title>
<path fill="none" stroke="#008000" stroke-width="3" d="M483.13,-276.66C536.75,-276.66 613.56,-276.66 661.61,-276.66"/>
<text text-anchor="middle" x="576.43" y="-280.86" font-family="Times New Roman,serif" font-size="14.00">*|1</text>
</g>
<!-- dvlp_ksefinvoice&#45;Setting ID -->
<g id="node4" class="node">
<title>dvlp_ksefinvoice&#45;Setting ID</title>
<polygon fill="#3455db" stroke="#000090" points="459.96,-240.66 382.48,-240.66 382.48,-204.66 459.96,-204.66 459.96,-240.66"/>
<text text-anchor="middle" x="421.22" y="-218.46" font-family="Helvetica,sans-Serif" font-size="14.00" fill="#ffffff">Setting ID</text>
</g>
<!-- dvlp_ksefsetting&#45;NIP -->
<g id="node5" class="node">
<title>dvlp_ksefsetting&#45;NIP</title>
<polygon fill="#9400d3" stroke="#000090" points="745.51,-101.66 668.84,-101.66 668.84,-65.66 745.51,-65.66 745.51,-101.66"/>
<text text-anchor="middle" x="707.18" y="-79.46" font-family="Helvetica,sans-Serif" font-size="14.00" fill="#ffffff">NIP (Key)</text>
</g>
<!-- dvlp_ksefinvoice&#45;Setting ID&#45;&#45;dvlp_ksefsetting&#45;NIP -->
<g id="edge3" class="edge">
<title>dvlp_ksefinvoice&#45;Setting ID&#45;&#45;dvlp_ksefsetting&#45;NIP</title>
<path fill="none" stroke="#3455db" stroke-width="3" d="M460.25,-218.61C488.32,-214.6 526.94,-206.92 558.34,-192.66 609.45,-169.46 660.16,-126.64 686.86,-102.15"/>
<text text-anchor="middle" x="576.43" y="-189.86" font-family="Times New Roman,serif" font-size="14.00">*|1</text>
</g>
<!-- dvlp_ksefsession&#45;KSeF Setting ID -->
<g id="node6" class="node">
<title>dvlp_ksefsession&#45;KSeF Setting ID</title>
<polygon fill="#9400d3" stroke="#000090" points="479.41,-101.66 363.03,-101.66 363.03,-65.66 479.41,-65.66 479.41,-101.66"/>
<text text-anchor="middle" x="421.22" y="-79.46" font-family="Helvetica,sans-Serif" font-size="14.00" fill="#ffffff">KSeF Setting ID</text>
</g>
<!-- dvlp_ksefsession&#45;KSeF Setting ID&#45;&#45;dvlp_ksefsetting&#45;NIP -->
<g id="edge4" class="edge">
<title>dvlp_ksefsession&#45;KSeF Setting ID&#45;&#45;dvlp_ksefsetting&#45;NIP</title>
<path fill="none" stroke="#9400d3" stroke-width="3" d="M479.68,-83.66C536.08,-83.66 620.44,-83.66 668.71,-83.66"/>
<text text-anchor="middle" x="576.43" y="-87.86" font-family="Times New Roman,serif" font-size="14.00">*|1</text>
</g>
<!-- dvlp_ksefsession&#45;Session Reference -->
<g id="node7" class="node">
<title>dvlp_ksefsession&#45;Session Reference</title>
<polygon fill="#939393" stroke="#000090" points="507.03,-155.66 335.4,-155.66 335.4,-119.66 507.03,-119.66 507.03,-155.66"/>
<text text-anchor="middle" x="421.22" y="-133.46" font-family="Helvetica,sans-Serif" font-size="14.00" fill="#ffffff">Session Reference (Key)</text>
</g>
<!-- dvlp_KSeFSyncLog&#45;KSeF Session ID -->
<g id="node8" class="node">
<title>dvlp_KSeFSyncLog&#45;KSeF Session ID</title>
<polygon fill="#939393" stroke="#000090" points="185.6,-142.66 63,-142.66 63,-106.66 185.6,-106.66 185.6,-142.66"/>
<text text-anchor="middle" x="124.3" y="-120.46" font-family="Helvetica,sans-Serif" font-size="14.00" fill="#ffffff">KSeF Session ID</text>
</g>
<!-- dvlp_KSeFSyncLog&#45;KSeF Session ID&#45;&#45;dvlp_ksefsession&#45;Session Reference -->
<g id="edge5" class="edge">
<title>dvlp_KSeFSyncLog&#45;KSeF Session ID&#45;&#45;dvlp_ksefsession&#45;Session Reference</title>
<path fill="none" stroke="#939393" stroke-width="3" d="M186.05,-127.34C229.05,-129.23 287.3,-131.8 334.95,-133.9"/>
<text text-anchor="middle" x="267" y="-134.86" font-family="Times New Roman,serif" font-size="14.00">*|1</text>
</g>
<!-- dvlp_KSeFSyncLog&#45;KSeF Setting ID -->
<g id="node9" class="node">
<title>dvlp_KSeFSyncLog&#45;KSeF Setting ID</title>
<polygon fill="#9400d3" stroke="#000090" points="182.49,-88.66 66.11,-88.66 66.11,-52.66 182.49,-52.66 182.49,-88.66"/>
<text text-anchor="middle" x="124.3" y="-66.46" font-family="Helvetica,sans-Serif" font-size="14.00" fill="#ffffff">KSeF Setting ID</text>
</g>
<!-- dvlp_KSeFSyncLog&#45;KSeF Setting ID&#45;&#45;dvlp_ksefsetting&#45;NIP -->
<g id="edge6" class="edge">
<title>dvlp_KSeFSyncLog&#45;KSeF Setting ID&#45;&#45;dvlp_ksefsetting&#45;NIP</title>
<path fill="none" stroke="#9400d3" stroke-width="3" d="M182.9,-55.44C213.09,-48.24 250.83,-40.45 285.09,-36.86 405.88,-24.23 438.32,-18.32 558.34,-36.86 596.79,-42.8 638.93,-56.95 668.35,-68.14"/>
<text text-anchor="middle" x="421.22" y="-40.86" font-family="Times New Roman,serif" font-size="14.00">*|1</text>
</g>
</g>
</svg>
